<svg width="376" height="206" viewBox="0 0 376 206" fill="none" xmlns="http://www.w3.org/2000/svg">
<path d="M19.76 94.12H57.584V36.616L35.984 82.888L14.384 36.52V97L11.504 96.904V29.704H14.384L35.984 76.072L57.584 29.8L60.464 29.704V97L19.76 96.904V94.12ZM79.0888 41.32H81.9688V97H79.0888V41.32ZM107.479 97H100.183V41.32H107.479C116.951 41.32 124.503 43.816 130.135 48.808C135.767 53.8 138.583 60.584 138.583 69.16C138.583 77.736 135.767 84.52 130.135 89.512C124.503 94.504 116.951 97 107.479 97ZM107.479 94.12C116.119 94.12 122.967 91.912 128.023 87.496C133.143 83.08 135.703 76.968 135.703 69.16C135.703 61.352 133.143 55.24 128.023 50.824C122.967 46.408 116.119 44.2 107.479 44.2H103.062V94.12H107.479ZM153.245 97V41.32H156.125L187.421 91.72V41.32H190.301V97H187.421L156.125 46.504V97H153.245ZM208.558 41.32H211.438V97H208.558V41.32ZM252.019 59.56L264.787 48.904C261.971 45.128 256.915 43.24 249.619 43.24C246.419 43.24 243.731 43.592 241.555 44.296C239.379 44.936 237.363 46.184 235.507 48.04C233.715 49.832 232.371 52.488 231.475 56.008C230.579 59.464 230.131 63.848 230.131 69.16C230.131 74.472 230.579 78.888 231.475 82.408C232.371 85.864 233.715 88.52 235.507 90.376C237.363 92.168 239.379 93.416 241.555 94.12C243.731 94.76 246.419 95.08 249.619 95.08C256.851 95.08 261.875 93.224 264.691 89.512V72.52H267.571V97.864C267.571 110.088 261.971 116.2 250.771 116.2H239.539V113.32H250.771C255.571 113.32 259.091 112.04 261.331 109.48C263.571 106.984 264.691 102.184 264.691 95.08V93.64C261.235 96.52 256.211 97.96 249.619 97.96C241.619 97.96 235.891 95.688 232.435 91.144C228.979 86.6 227.251 79.272 227.251 69.16C227.251 59.048 228.979 51.72 232.435 47.176C235.891 42.632 241.619 40.36 249.619 40.36C258.899 40.36 265.203 43.4 268.531 49.48L256.531 59.56H252.019ZM318.961 97H316.081V69.16H287.281V97H284.401V41.32H287.281V66.28H316.081V41.32H318.961V97ZM373.183 41.32V44.2H353.023V97H350.143V44.2H329.983V41.32H373.183Z" fill="#110914"/>
<path d="M52.496 146.624L59.312 146.528V150.464C58.544 150.336 57.648 150.272 56.624 150.272C55.6 150.272 54.448 150.336 53.168 150.464C53.168 155.392 50.8 160.384 46.064 165.44C41.328 170.496 35.6 174.592 28.88 177.728C22.224 180.928 16.016 182.528 10.256 182.528C7.248 182.528 4.784 181.76 2.864 180.224C1.008 178.688 0.0799999 176.672 0.0799999 174.176C0.0799999 170.464 2.544 166.592 7.472 162.56C12.4 158.528 18.16 155.2 24.752 152.576C31.344 149.952 37.296 148.416 42.608 147.968C41.968 147.008 40.976 146.176 39.632 145.472C38.288 144.768 35.536 143.68 31.376 142.208C27.216 140.672 24.272 139.008 22.544 137.216C20.816 135.36 19.952 132.768 19.952 129.44C19.952 126.112 21.744 122.304 25.328 118.016C28.912 113.728 33.136 110.144 38 107.264C42.928 104.32 47.248 102.848 50.96 102.848C52.624 102.848 54 103.456 55.088 104.672C56.176 105.824 56.72 107.264 56.72 108.992C56.72 111.808 55.024 115.36 51.632 119.648C48.24 123.872 44.464 127.104 40.304 129.344L38 126.08C40.496 124.8 42.672 122.816 44.528 120.128C46.448 117.376 47.408 115.008 47.408 113.024C47.408 111.04 46.352 110.048 44.24 110.048C41.232 110.048 37.776 111.936 33.872 115.712C30.032 119.424 28.112 122.912 28.112 126.176C28.112 128.416 28.688 130.176 29.84 131.456C30.992 132.736 33.904 134.336 38.576 136.256C43.248 138.112 46.576 139.776 48.56 141.248C50.544 142.656 51.856 144.448 52.496 146.624ZM9.68 171.68C9.68 174.752 12.176 176.288 17.168 176.288C19.92 176.288 23.472 175.264 27.824 173.216C32.24 171.232 36.112 168.416 39.44 164.768C42.832 161.184 44.528 157.504 44.528 153.728C44.528 153.28 44.432 152.608 44.24 151.712C35.472 152.544 27.504 155.008 20.336 159.104C13.232 163.2 9.68 167.392 9.68 171.68ZM90.0275 152.672L92.2355 154.4C90.2515 157.152 87.5315 159.456 84.0755 161.312C80.6195 163.104 77.2595 164 73.9955 164C70.7315 164 68.1075 163.04 66.1235 161.12C64.1395 159.2 63.1475 156.672 63.1475 153.536C63.1475 147.648 66.2515 141.856 72.4595 136.16C78.7315 130.464 85.0675 127.616 91.4675 127.616C95.6915 127.616 97.8035 129.28 97.8035 132.608C97.8035 136.064 95.5635 139.552 91.0835 143.072C86.6675 146.592 80.4275 149.792 72.3635 152.672C72.9395 154.144 73.8355 155.296 75.0515 156.128C76.2675 156.96 77.5155 157.376 78.7955 157.376C81.5475 157.376 85.2915 155.808 90.0275 152.672ZM71.8835 149.792C77.0675 148 81.5155 145.76 85.2275 143.072C88.9395 140.384 90.7955 137.92 90.7955 135.68C90.7955 134.848 90.4755 134.112 89.8355 133.472C89.1955 132.832 88.4595 132.512 87.6275 132.512C84.6195 132.512 81.3555 134.4 77.8355 138.176C74.3795 141.888 72.3955 145.76 71.8835 149.792ZM126.59 130.016C128.19 130.016 129.502 130.56 130.526 131.648C131.55 132.736 132.062 134.144 132.062 135.872C132.062 139.328 130.078 142.976 126.11 146.816L123.806 144.992C124.702 143.008 125.15 141.568 125.15 140.672C125.15 138.944 124.19 138.08 122.27 138.08C120.35 138.08 118.526 139.296 116.798 141.728C115.07 144.16 113.022 147.936 110.654 153.056C108.35 158.112 106.59 161.696 105.374 163.808L99.902 161.408C103.422 153.408 105.438 148.704 105.95 147.296C107.678 142.304 108.542 135.968 108.542 128.288L113.918 126.848C113.726 131.008 113.438 134.24 113.054 136.544C112.67 138.784 111.742 142.464 110.27 147.584C116.734 135.872 122.174 130.016 126.59 130.016ZM165.227 129.632L168.491 132.224C159.979 143.424 154.219 152.768 151.211 160.256C150.187 162.752 148.715 164 146.795 164C145.579 164 144.491 163.36 143.531 162.08C142.635 160.8 142.027 159.648 141.707 158.624C141.451 157.536 141.003 155.296 140.363 151.904C139.723 148.512 139.019 144.992 138.251 141.344C137.483 137.632 136.843 134.88 136.331 133.088C135.883 131.232 135.563 130.016 135.371 129.44C135.243 128.864 134.987 128.384 134.603 128C134.219 127.552 133.995 127.264 133.931 127.136L140.171 127.712C142.027 132.256 143.499 137.184 144.587 142.496C144.843 143.584 145.291 145.792 145.931 149.12C146.571 152.384 147.083 154.944 147.467 156.8C150.987 150.016 154.059 144.512 156.683 140.288C159.371 136 162.219 132.448 165.227 129.632Z" fill="#4A235A"/>
<path d="M189.266 140.582L188.464 138.571L185.617 133.306C185.617 133.306 186.99 126.947 187.039 126.707C187.088 126.467 188.128 124.901 188.128 124.901C188.128 124.901 187.899 124.69 187.908 124.417C187.916 124.104 188.378 123.3 188.378 123.3L181.99 122.257C181.99 122.257 182.108 122.894 181.906 123.252C181.708 123.607 181.532 123.725 181.532 123.725L182.728 128.832L179.274 136.398C179.274 136.398 178.058 136.493 177.36 136.961C174.813 138.673 173.391 142.225 172.642 144.82C172.279 146.076 170.823 152.72 170.603 154.776C170.384 156.832 169.416 162.332 169.74 163.158C170.06 163.98 171.364 165.032 172.419 165.775C173.473 166.519 175.052 167.348 176.244 167.698C177.436 168.048 179.153 166.999 179.586 165.002C180.019 163.005 189.266 140.582 189.266 140.582Z" fill="#4A235A"/>
<path d="M183.464 126.295L181.552 125.705C181.552 125.705 181.355 127.767 179.793 131.703C178.231 135.639 176.638 137.508 176.638 137.508C176.638 137.508 177.36 137.971 177.968 138.337C178.577 138.703 180.188 139.689 180.188 139.689C180.188 139.689 182.209 134.449 182.771 132.986C183.333 131.522 184.089 127.693 184.078 127.584C184.07 127.478 183.464 126.295 183.464 126.295Z" fill="#4A235A"/>
<path d="M187.573 126.241L183.598 126.849C183.598 126.849 182.782 130.26 181.788 132.733C180.794 135.207 178.705 138.789 178.705 138.789C178.705 138.789 181.399 140.342 182.913 141.537C184.818 143.042 185.882 144.281 186.063 144.271C186.372 144.251 187.907 141.035 188.185 140.42C188.463 139.806 188.69 139.121 188.69 139.121C188.69 139.121 187.421 135.915 187.363 132.234C187.306 128.554 187.573 126.241 187.573 126.241Z" fill="#4A235A"/>
<path d="M178.162 139.734C178.162 139.734 180.881 141.032 183.257 143.114C185.634 145.196 186.138 146.106 186.465 146.079C186.788 146.048 189.269 140.556 189.269 140.556C189.269 140.556 189.955 142.176 190.227 145.448C190.498 148.72 189.958 152.517 189.958 152.517L187.995 164.325C187.995 164.325 187.802 165.917 186.788 166.776C185.774 167.635 184.217 168.041 182.186 168.327C177.264 169.014 172.619 166.068 172.575 165.867C172.534 165.67 173.137 160.245 173.806 155.978C174.475 151.711 175.314 146.309 176.275 143.744C177.537 140.357 178.162 139.734 178.162 139.734Z" fill="#5D2C71"/>
<path d="M189 140.5C187.725 139.225 179 138 178 140C179.5 141 179 145.6 179 146C179 146.4 183 148.5 185 149.5L188.5 145.5C189 143.5 189.5 141 189 140.5Z" fill="#5D2C71"/>
<path d="M178.208 150.525C177.639 150.83 175.664 162.915 176.052 163.441C176.524 164.07 180.103 165.796 184.062 165.118C187.166 164.587 188.157 163.362 188.176 163.276C188.218 163.1 189.806 153.809 189.903 153.24C190.071 152.248 190.216 149.887 190.216 149.887C190.216 149.887 188.503 150.867 185.665 151.113C181.198 151.486 178.572 150.332 178.208 150.525Z" fill="#4A235A"/>
<path d="M185.869 119.854C183.972 119.5 181.942 120.228 181.822 121.719C181.708 123.211 183.598 124.185 185.078 124.408C187.098 124.716 188.488 124.256 188.701 122.69C188.914 121.124 187.514 120.157 185.869 119.854ZM181.609 123.645C181.609 123.645 182.494 125.335 184.898 125.569C187.302 125.804 188.128 124.901 188.128 124.901C188.128 124.901 188.99 125.83 187.756 126.755C186.427 127.75 182.709 127.761 181.017 125.517C180.254 124.514 181.609 123.645 181.609 123.645Z" fill="#810FB6"/>
<path d="M190.513 118.003C190.513 118.003 192.028 117.047 191.457 116.178C190.757 115.119 189.501 115.642 188.792 116.214C188.084 116.785 186.851 117.703 186.851 117.703L184.048 116.007C184.048 116.007 183.209 114.551 182.15 114.768C181.224 114.96 181.214 115.812 181.214 115.812L185.085 119.364C185.085 119.364 187.981 119.396 188.124 119.281C188.267 119.165 190.513 118.003 190.513 118.003Z" fill="#C191FF"/>
<path d="M188.17 117.844C188.17 117.844 190.606 115.672 191.336 116.335C191.911 116.858 191.235 117.462 190.926 117.753C190.617 118.044 187.277 121.057 187.1 121.188C186.375 121.732 184.761 121.563 183.923 120.568C183.63 120.219 181.058 116.629 181.186 115.829C181.262 115.366 181.868 115.473 182.24 115.64C182.611 115.808 183.138 116.469 183.138 116.469C183.138 116.469 183.763 115.032 185.216 115.295C186.675 115.559 188.17 117.844 188.17 117.844ZM193.935 112.147C194.454 112.739 195.465 112.118 196.349 111.245C197.237 110.375 197.755 109.532 197.256 109.001C196.699 108.405 195.642 109.021 194.873 109.796C194.104 110.57 193.42 111.553 193.935 112.147ZM193.28 115.853C193.496 116.53 194.664 116.368 195.379 116.098C196.098 115.831 197.003 115.372 196.81 114.554C196.619 113.739 195.326 113.967 194.67 114.26C194.015 114.552 193.056 115.143 193.28 115.853ZM181.353 112.711C180.952 113.034 180.099 112.789 179.222 111.754C178.343 110.715 178.421 109.802 179.05 109.329C179.682 108.861 180.665 109.698 181.083 110.407C181.501 111.115 181.94 112.238 181.353 112.711Z" fill="#9747FF"/>
<path d="M190.938 110.146C190.938 110.146 191.528 108.366 191.051 107.687C190.702 107.189 189.281 106.357 187.753 106.154C185.931 105.917 184.31 106.551 184.04 106.94C183.677 107.457 183.516 108.839 183.615 109.108C183.714 109.377 187.601 112.219 187.694 112.144C187.787 112.069 190.938 110.146 190.938 110.146Z" fill="#5D2C71"/>
<path d="M187.139 110.299C184.478 109.812 183.599 108.525 183.599 108.525C183.599 108.525 183.356 109.358 183.614 109.729C183.875 110.104 184.212 110.375 184.212 110.375C184.212 110.375 183.61 112.609 184.196 113.336C184.782 114.062 185.648 114.432 186.723 114.593C187.698 114.74 188.692 114.676 189.314 114.056C189.658 113.714 190.027 111.425 190.027 111.425C190.027 111.425 190.454 111.069 190.654 110.79C190.854 110.51 190.97 110.003 190.97 110.003C190.97 110.003 189.467 110.725 187.139 110.299Z" fill="#4A235A"/>
<path d="M223.976 150.368L226.28 152.288C224.744 155.808 222.28 158.624 218.888 160.736C215.496 162.848 212.2 163.904 209 163.904C205.864 163.904 203.24 162.912 201.128 160.928C199.08 158.944 198.056 156.224 198.056 152.768C198.056 149.312 199.56 145.568 202.568 141.536C205.576 137.504 209.448 134.176 214.184 131.552C218.984 128.928 223.688 127.616 228.296 127.616C228.936 127.616 229.896 127.68 231.176 127.808L230.888 131.552C223.848 131.872 217.992 134.016 213.32 137.984C208.712 141.952 206.408 146.176 206.408 150.656C206.408 152.512 206.984 154.016 208.136 155.168C209.288 156.32 210.792 156.896 212.648 156.896C215.592 156.896 219.368 154.72 223.976 150.368ZM259.903 152.672L262.111 154.4C260.127 157.152 257.407 159.456 253.951 161.312C250.495 163.104 247.135 164 243.871 164C240.607 164 237.983 163.04 235.999 161.12C234.015 159.2 233.023 156.672 233.023 153.536C233.023 147.648 236.127 141.856 242.335 136.16C248.607 130.464 254.943 127.616 261.343 127.616C265.567 127.616 267.679 129.28 267.679 132.608C267.679 136.064 265.439 139.552 260.959 143.072C256.543 146.592 250.303 149.792 242.239 152.672C242.815 154.144 243.711 155.296 244.927 156.128C246.143 156.96 247.391 157.376 248.671 157.376C251.423 157.376 255.167 155.808 259.903 152.672ZM241.759 149.792C246.943 148 251.391 145.76 255.103 143.072C258.815 140.384 260.671 137.92 260.671 135.68C260.671 134.848 260.351 134.112 259.711 133.472C259.071 132.832 258.335 132.512 257.503 132.512C254.495 132.512 251.231 134.4 247.711 138.176C244.255 141.888 242.271 145.76 241.759 149.792Z" fill="#4A235A"/>
</svg>
